<?xml version="1.0" standalone="no"?>
<!DOCTYPE svg PUBLIC "-//W3C//DTD SVG 20010904//EN"
 "http://www.w3.org/TR/2001/REC-SVG-20010904/DTD/svg10.dtd">
<svg version="1.0" xmlns="http://www.w3.org/2000/svg"
 width="500.000000pt" height="500.000000pt" viewBox="0 0 500.000000 500.000000"
 preserveAspectRatio="xMidYMid meet">
<metadata>
Created by potrace 1.11, written by Peter Selinger 2001-2013
</metadata>
<g transform="translate(0.000000,500.000000) scale(0.100000,-0.100000)"
fill="#000000" stroke="none">
<path d="M1280 3939 c-69 -24 -144 -80 -192 -144 -105 -139 -105 -361 0 -500
83 -110 196 -165 337 -165 141 0 254 55 337 165 77 102 101 263 58 391 -39
114 -140 215 -254 254 -79 27 -209 26 -286 -1z"/>
<path d="M2406 3940 c-107 -34 -183 -98 -237 -200 -22 -42 -24 -56 -24 -195 0
-139 2 -153 24 -195 55 -103 131 -166 240 -201 59 -18 96 -19 656 -19 560 0
597 1 656 19 109 35 185 98 240 201 22 42 24 56 24 195 0 139 -2 153 -24 195
-55 103 -131 166 -240 201 -59 18 -96 19 -659 18 -556 0 -601 -1 -656 -19z"/>
<path d="M1280 2879 c-69 -24 -144 -80 -192 -144 -105 -139 -105 -361 0 -500
83 -110 196 -165 337 -165 141 0 254 55 337 165 105 139 105 361 0 500 -50 66
-124 120 -196 145 -79 27 -209 26 -286 -1z"/>
<path d="M2406 2870 c-107 -34 -183 -98 -237 -200 -22 -42 -24 -56 -24 -195 0
-139 2 -153 24 -195 55 -103 131 -166 240 -201 59 -18 96 -19 656 -19 560 0
597 1 656 19 109 35 185 98 240 201 22 42 24 56 24 195 0 139 -2 153 -24 195
-55 103 -131 166 -240 201 -59 18 -96 19 -659 18 -556 0 -601 -1 -656 -19z"/>
<path d="M1277 1806 c-115 -48 -183 -112 -234 -222 -25 -53 -28 -70 -28 -169
0 -103 2 -114 32 -177 41 -88 113 -160 201 -201 63 -30 74 -32 177 -32 103 0
114 2 177 32 88 41 160 113 201 201 30 63 32 74 32 177 0 103 -2 114 -32 177
-41 88 -113 160 -201 201 -59 28 -78 32 -167 35 -87 2 -107 -1 -158 -22z"/>
<path d="M2405 1809 c-110 -38 -183 -100 -236 -199 -22 -42 -24 -56 -24 -195
0 -139 2 -153 24 -195 53 -100 127 -161 239 -199 59 -20 80 -21 657 -21 577 0
598 1 657 21 112 38 186 99 239 199 22 42 24 56 24 195 0 139 -2 153 -24 195
-53 100 -127 161 -239 199 -59 20 -80 21 -659 21 -576 -1 -600 -1 -658 -21z"/>
</g>
</svg>
