<?xml version="1.0" standalone="no"?>
<!DOCTYPE svg PUBLIC "-//W3C//DTD SVG 20010904//EN"
 "http://www.w3.org/TR/2001/REC-SVG-20010904/DTD/svg10.dtd">
<svg version="1.0" xmlns="http://www.w3.org/2000/svg"
 width="600.000000pt" height="600.000000pt" viewBox="0 0 600.000000 600.000000"
 preserveAspectRatio="xMidYMid meet">
<metadata>
Created by potrace 1.14, written by Peter Selinger 2001-2017
</metadata>
<g transform="translate(0.000000,600.000000) scale(0.100000,-0.100000)"
fill="#000000" stroke="none">
<path d="M845 5994 c-182 -22 -297 -54 -420 -117 -61 -31 -102 -63 -170 -132
-101 -100 -154 -188 -198 -330 -55 -176 -52 -60 -52 -2415 0 -2355 -3 -2239
52 -2415 44 -142 97 -230 198 -330 100 -101 188 -154 330 -198 176 -55 60 -52
2415 -52 2355 0 2239 -3 2415 52 143 45 230 96 331 197 101 101 152 188 197
331 55 176 52 60 52 2415 0 2355 3 2239 -52 2415 -45 143 -96 230 -197 331
-123 122 -241 182 -456 231 -69 16 -246 17 -2245 19 -1194 0 -2183 0 -2200 -2z
m3925 -1444 c70 -39 95 -93 95 -205 0 -112 -25 -166 -95 -205 l-45 -25 -1745
0 -1745 0 -45 25 c-70 40 -95 93 -95 205 0 132 32 185 133 221 30 11 342 13
1767 11 l1730 -2 45 -25z m0 -900 c70 -39 95 -93 95 -205 0 -112 -25 -166 -95
-205 l-45 -25 -1745 0 -1745 0 -45 25 c-70 40 -95 93 -95 205 0 132 32 185
133 221 30 11 342 13 1767 11 l1730 -2 45 -25z m0 -920 c70 -39 95 -93 95
-205 0 -112 -25 -166 -95 -205 l-45 -25 -1745 0 -1745 0 -45 25 c-70 40 -95
93 -95 205 0 132 32 185 133 221 30 11 342 13 1767 11 l1730 -2 45 -25z m0
-880 c70 -39 95 -93 95 -205 0 -112 -25 -166 -95 -205 l-45 -25 -1745 0 -1745
0 -45 25 c-70 40 -95 93 -95 205 0 132 32 185 133 221 30 11 342 13 1767 11
l1730 -2 45 -25z"/>
</g>
</svg>
