<?xml version="1.0" standalone="no"?>
<!DOCTYPE svg PUBLIC "-//W3C//DTD SVG 20010904//EN"
 "http://www.w3.org/TR/2001/REC-SVG-20010904/DTD/svg10.dtd">
<svg version="1.0" xmlns="http://www.w3.org/2000/svg"
 width="600.000000pt" height="600.000000pt" viewBox="0 0 600.000000 600.000000"
 preserveAspectRatio="xMidYMid meet">
<metadata>
Created by potrace 1.14, written by Peter Selinger 2001-2017
</metadata>
<g transform="translate(0.000000,600.000000) scale(0.100000,-0.100000)"
fill="#000000" stroke="none">
<path d="M845 5994 c-182 -22 -297 -54 -420 -117 -61 -31 -102 -63 -170 -132
-101 -100 -154 -188 -198 -330 -55 -176 -52 -60 -52 -2415 0 -2355 -3 -2239
52 -2415 44 -142 97 -230 198 -330 100 -101 188 -154 330 -198 176 -55 60 -52
2415 -52 2355 0 2239 -3 2415 52 142 44 230 97 330 198 101 100 154 188 198
330 55 176 52 60 52 2415 0 2355 3 2239 -52 2415 -44 142 -97 230 -198 330
-123 123 -241 184 -455 232 -69 16 -247 17 -2245 19 -1194 0 -2183 0 -2200 -2z
m3627 -1255 c183 -39 278 -172 278 -389 0 -218 -100 -355 -285 -389 -84 -16
-2863 -15 -2937 0 -183 39 -278 172 -278 389 0 213 89 342 265 386 69 17 2877
20 2957 3z m0 -1350 c183 -39 278 -172 278 -389 0 -218 -100 -355 -285 -389
-84 -16 -2863 -15 -2937 0 -183 39 -278 172 -278 389 0 213 89 342 265 386 69
17 2877 20 2957 3z m0 -1350 c183 -39 278 -172 278 -389 0 -218 -100 -355
-285 -389 -84 -16 -2863 -15 -2937 0 -183 39 -278 172 -278 389 0 213 89 342
265 386 69 17 2877 20 2957 3z"/>
</g>
</svg>
